<?xml version="1.0" encoding="utf-8"?>
<!-- Generator: Adobe Illustrator 23.1.0, SVG Export Plug-In . SVG Version: 6.00 Build 0)  -->
<svg version="1.1" id="Фигура_1_1_" xmlns="http://www.w3.org/2000/svg" xmlns:xlink="http://www.w3.org/1999/xlink" x="0px"
	 y="0px" viewBox="0 0 144 72" style="enable-background:new 0 0 144 72;" xml:space="preserve">
<style type="text/css">
	.st0{fill-rule:evenodd;clip-rule:evenodd;}
	.st1{fill-rule:evenodd;clip-rule:evenodd;fill:#DB0030;}
</style>
<g id="Фигура_1">
	<path class="st0" d="M49.25,32.55H43.2v-8.07h-8.94v23.47h9v-8.59h6.04v8.6h8.97V24.46h-9.03V32.55z M99.97,30.79
		c-3.21-1.86-7.35-0.82-9.27,2.34c-0.03,0.06-0.11,0.09-0.28,0.23v-2.95h-7.96v17.57h8.42c0-0.38,0-0.66,0-0.95
		c0-3.04-0.01-6.09,0.01-9.13c0-0.48,0.03-0.97,0.14-1.43c0.16-0.68,0.64-1.01,1.34-1.02c0.69-0.01,1.22,0.23,1.39,0.94
		c0.1,0.41,0.14,0.84,0.15,1.26c0.01,3.15,0.01,6.3,0.01,9.45v0.84h8.46c0-4.43,0.06-8.78-0.03-13.12
		C102.32,33.11,101.51,31.68,99.97,30.79z M118.58,37.49c-1.03-0.35-2.12-0.51-3.19-0.72c-0.97-0.19-1.95-0.27-2.91-0.49
		c-0.26-0.06-0.59-0.44-0.61-0.7c-0.02-0.26,0.27-0.6,0.5-0.81c0.18-0.16,0.49-0.24,0.74-0.26c0.93-0.05,1.87-0.18,2.79-0.06
		c1.68,0.22,3.34,0.59,5.03,0.9v-4.46c-3.2-0.87-6.41-1.12-9.64-0.82c-1.76,0.16-3.48,0.53-5.01,1.49c-1.75,1.1-2.5,2.72-2.4,4.74
		c0.1,1.99,1.12,3.41,2.94,4.1c1.36,0.52,2.8,0.81,4.22,1.16c0.75,0.19,1.53,0.24,2.26,0.46c0.26,0.08,0.57,0.47,0.58,0.74
		c0.01,0.26-0.28,0.59-0.52,0.8c-0.18,0.16-0.48,0.21-0.74,0.26c-2.47,0.46-4.82-0.05-7.13-0.86c-0.29-0.1-0.57-0.2-0.95-0.33
		c0,1.42,0.05,2.7-0.02,3.98c-0.04,0.7,0.25,0.92,0.86,1.05c2.99,0.66,5.99,1.01,9.05,0.63c2.09-0.26,4.08-0.78,5.72-2.22
		C122.53,43.96,122.9,38.95,118.58,37.49z M143.33,36.38c-0.04-2.33-1.19-4.07-3.28-5.11c-0.8-0.4-1.67-0.71-2.55-0.91
		c-3.04-0.7-6.1-0.42-9.15-0.09c-1.2,0.13-2.39,0.36-3.55,0.54v4.55c1.56-0.33,3.06-0.7,4.58-0.94c1.61-0.26,3.24-0.35,4.82,0.23
		c1.14,0.41,1.46,1,1.33,2.32c-0.88,0-1.79-0.03-2.68,0.01c-2.32,0.09-4.65,0.17-6.78,1.25c-2.07,1.05-3.1,2.97-2.88,5.35
		c0.21,2.3,1.42,3.96,3.59,4.48c3.18,0.77,6.21,0.59,8.62-2.06c0.02-0.02,0.09,0,0.21,0v1.95h7.69c0.04-0.13,0.08-0.2,0.08-0.28
		C143.35,43.91,143.4,40.14,143.33,36.38z M134.1,43.87c-1.11,0.01-1.98-0.85-1.98-1.96c0-1.1,0.9-1.98,2-1.95
		c1.04,0.03,1.91,0.92,1.91,1.97C136.03,42.99,135.17,43.85,134.1,43.87z M80.21,35.07c-0.65-2.62-2.58-3.88-4.99-4.56
		c-2.94-0.82-5.92-0.64-8.89-0.25c-1.33,0.17-2.64,0.47-3.92,0.7v4.49c1.45-0.35,2.86-0.74,4.29-1.02c1.5-0.29,3.03-0.33,4.5,0.19
		c1.18,0.41,1.56,1.07,1.33,2.45c-1.53,0-3.1-0.07-4.66,0.02c-1.9,0.1-3.77,0.42-5.4,1.51c-2,1.34-2.5,3.32-2.16,5.55
		c0.32,2.09,1.64,3.37,3.62,3.94c1.59,0.46,3.21,0.42,4.83,0.09c1.51-0.31,2.75-1.07,3.89-2.45v2.2h7.74
		c0.02-0.2,0.03-0.33,0.03-0.46c0-3.53,0.01-7.05-0.01-10.58C80.42,36.29,80.36,35.66,80.21,35.07z M71.12,43.87
		c-1.07-0.01-1.91-0.86-1.92-1.93c-0.01-1.08,0.82-1.95,1.89-1.97c1.09-0.03,2,0.86,2.01,1.94C73.11,43,72.22,43.87,71.12,43.87z"/>
</g>
<g id="Фигура_1_2_">
	<path class="st1" d="M6.04,23.51c-3.03,0.02-5.44,2.46-5.42,5.48c0.03,2.99,2.52,5.43,5.51,5.41c2.96-0.02,5.4-2.46,5.41-5.42
		C11.56,25.91,9.12,23.49,6.04,23.51z M6.12,37.14c-3.05,0.01-5.5,2.43-5.49,5.41c0.01,3.02,2.44,5.47,5.43,5.49
		c3.03,0.01,5.52-2.49,5.48-5.51C11.5,39.53,9.08,37.13,6.12,37.14z M19.74,37.14c-3.03-0.04-5.48,2.34-5.53,5.36
		c-0.05,2.99,2.36,5.46,5.38,5.54c2.98,0.07,5.46-2.35,5.5-5.39C25.14,39.61,22.78,37.18,19.74,37.14z M19.66,23.51
		c-3.02,0-5.45,2.41-5.45,5.42c0,2.99,2.45,5.47,5.42,5.48c3.01,0.01,5.46-2.42,5.48-5.41C25.12,25.91,22.73,23.51,19.66,23.51z"/>
</g>
</svg>
