<?xml version="1.0" encoding="utf-8"?>
<!-- Generator: Adobe Illustrator 23.1.0, SVG Export Plug-In . SVG Version: 6.00 Build 0)  -->
<svg version="1.1" id="Фигура_2_1_" xmlns="http://www.w3.org/2000/svg" xmlns:xlink="http://www.w3.org/1999/xlink" x="0px"
	 y="0px" viewBox="0 0 96 96" style="enable-background:new 0 0 96 96;" xml:space="preserve">
<style type="text/css">
	.st0{fill-rule:evenodd;clip-rule:evenodd;fill:#090464;}
	.st1{fill-rule:evenodd;clip-rule:evenodd;fill:#FE4214;}
</style>
<g id="Фигура_2">
	<g>
		<path class="st0" d="M90.59,27.97c0.03-0.97-0.3-1.46-1.16-1.9C75.86,19.21,62.3,12.32,48.74,5.41c-0.76-0.39-1.33-0.34-2.06,0.03
			c-8.02,4.1-16.07,8.17-24.1,12.26c-5.57,2.83-11.13,5.65-16.69,8.5c-0.39,0.2-0.91,0.64-0.92,0.97c-0.07,2.84-0.04,5.69-0.04,8.71
			c0.5-0.22,0.83-0.34,1.15-0.5c13.53-6.87,27.06-13.74,40.57-20.64c0.79-0.4,1.39-0.4,2.18,0c12.04,6.15,24.09,12.27,36.15,18.4
			c1.79,0.91,3.59,1.81,5.6,2.82C90.57,33.15,90.52,30.56,90.59,27.97z M50.37,38.82c-0.31,0-0.74,0.44-0.89,0.77
			c-1.67,3.83-3.29,7.67-4.92,11.52c-1.27,2.99-2.54,5.97-3.81,8.96c-0.09-0.01-0.17-0.03-0.26-0.04V38.87h-7.17v27.41
			c0.47,0.02,0.87,0.05,1.28,0.06c2.81,0.01,5.63-0.04,8.44,0.03c0.93,0.02,1.37-0.27,1.73-1.13c2.56-6.14,5.17-12.26,7.77-18.38
			c0.26-0.62,0.56-1.23,0.84-1.85c0.1,0.02,0.19,0.04,0.29,0.06V66.3h7.08V38.79C57.23,38.79,53.8,38.77,50.37,38.82z M5.01,66.27
			h7.16V45.36h10.38v20.89h7.16V38.85H5.01V66.27z M90.19,38.79c-2.89,0-5.76-0.02-8.64,0.03c-0.33,0.01-0.7,0.38-0.97,0.67
			c-1.54,1.62-3.05,3.26-4.58,4.89c-1.4,1.49-2.8,2.98-4.43,4.72V38.87h-7.11v27.39h7.09c0-2.31,0.18-4.56-0.05-6.76
			c-0.21-2,0.92-2.96,2.25-4.05c2.53,3.38,5.03,6.67,7.48,10c0.5,0.68,1.02,0.93,1.85,0.91c2.11-0.06,4.22-0.01,6.33-0.02
			c0.3,0,0.59-0.07,1.02-0.12c-3.99-5.33-7.87-10.51-11.72-15.66C82.59,46.58,86.36,42.72,90.19,38.79z"/>
	</g>
</g>
<g id="Фигура_2_3_">
	<g>
		<path class="st1" d="M78.41,76.9c-0.43,1.31-0.87,2.61-1.33,3.98c1.04,0,1.91,0,2.93,0c-0.47-1.41-0.9-2.69-1.33-3.97
			C78.59,76.92,78.5,76.91,78.41,76.9z M29.25,76.71c-0.43-0.11-0.96-0.08-0.96-0.09c-0.41,0-1.1,0.02-1.61,0.02
			c-0.33,0-0.48-0.01-0.67,0.04c-0.02,0.54-0.02,1.49,0,2.66c0.25,0.01,0.37-0.01,0.65-0.01c1.22,0.02,1.83,0.01,2.63-0.09
			c0.69-0.09,0.99-0.83,0.98-1.26C30.28,77.24,29.76,76.86,29.25,76.71z M5.28,69.75v20.57h85.43V69.75H5.28z M21.52,75.41
			c-0.01,0.49-0.02,0.74,0,1.41c-0.17,0-1.95,0.03-3.48,0.03c-0.75,0-2.31,0-2.76-0.01c-0.05,5.54-0.06,8.2-0.07,9.28
			c-0.26,0.02-2.48,0.01-2.93,0.01c0-0.33,0.02-4.48,0.02-6.13c0,0,0,0,0,0c0-1.61-0.01-5.2-0.03-5.89c0.31-0.01,0.68,0,1.1,0
			c2.65-0.01,7.92-0.01,8.15,0C21.5,74.54,21.52,75.02,21.52,75.41z M30.43,81.92c-1.12,0.22-2.1,0.21-3.25,0.19
			c-0.32,0-0.79-0.03-1.18-0.03c-0.02,0.43,0,3.35,0,4.02c-0.33,0.02-1.03,0.03-1.58,0.02c-0.59-0.02-1.02,0-1.36,0
			c0-1.29,0.03-8.92,0.01-11c-0.01-0.34,0-0.68-0.01-1.02c0.26-0.01,0.58-0.01,1,0c1.86,0.05,3.72-0.01,5.58,0.03
			c2.23,0.05,3.66,1.39,3.87,3.55C33.72,79.87,32.61,81.5,30.43,81.92z M42.95,79.1c-0.95,1.69-3.73,6.38-4.13,7
			c-1.42,0.02-2.11,0.01-3.5,0.02c0.65-1.06,0.86-1.36,1.52-2.42c0.29-0.47,0.7-1.15,1.11-1.91c-0.16-0.32-0.45-0.69-0.9-1.4
			c-1.09-1.75-2-3.36-3.09-5.28c-0.13-0.24-0.33-0.53-0.52-0.99c1.14,0,2.43-0.02,3.49-0.02c0.16,0.22,0.31,0.55,0.53,0.9
			c0.72,1.19,1.38,2.42,2.2,3.86c0.71-1.24,2.29-4.16,2.59-4.76c0.56-0.01,1,0,1.87,0c0.5,0,1.07,0,1.65,0
			C44.78,75.88,43.83,77.53,42.95,79.1z M57.53,86.1c-0.39,0.02-2.5,0.02-2.96,0c-0.02-0.48,0.05-7.93,0.07-9.25
			c-0.24,0-4.87,0-5.07,0c-0.02,0.85,0.01,2.16-0.03,9.25c-0.3,0-0.79,0.01-1.32,0c-0.57-0.02-0.96,0-1.6,0
			c-0.02-0.46-0.03-6.5,0.03-9.81c-0.02-0.85-0.02-2.01,0.01-2.19c0.2-0.01,7.35,0.01,10.85,0.01c0,2.04,0,3.93,0,5.82
			C57.51,81.63,57.55,85.42,57.53,86.1z M70.91,80.04c0,1.65-0.05,3.31,0.02,4.96c0.02,0.45-0.03,0.66,0.01,1.1
			c-0.41,0-0.81,0-1.34-0.01c-0.72,0.01-1.02,0.01-1.72,0.01c-0.01-0.45-0.01-0.71,0-1.11c0.01-2.46-0.02-4.63,0.02-6.94
			c0.01-0.45-0.01-0.87-0.03-1.18c-0.34-0.03-0.73-0.04-1.19-0.03c-0.91,0.01-3.44,0.03-3.74,0.03c0,0.18,0.01,0.68,0.02,1.01
			c0.03,2.31,0,4.43,0.03,6.94c0.01,0.45,0.01,0.69,0.01,1.28c-0.57,0-0.84,0.04-1.41,0c-0.51,0-1.06,0-1.64,0.01
			c0-0.35,0-0.88,0-1.21c-0.02-3.72,0-6.86,0.02-9.79c0-0.34,0.02-0.54,0.05-1.01c0.24,0,0.55-0.01,0.96-0.01
			c2.97,0.03,5.95,0.04,8.92,0c0.42-0.01,0.71,0.01,1.04,0c-0.02,0.37-0.01,0.73-0.02,1.11C70.9,77.07,70.91,78.43,70.91,80.04z
			 M81.7,85.85c-0.17-0.38-0.67-1.59-0.87-2.1c-1.26-0.02-3.35-0.03-4.69-0.05c-0.29,0.78-0.67,2.04-0.89,2.4
			c-0.78,0-1.63,0-3.01-0.02c0.44-1.27,0.88-2.59,1.26-3.61c0.94-2.56,1.83-4.81,2.72-7.39c0.28-0.78,0.51-0.97,0.51-0.97
			c1.48,0,2.63,0,3.44,0c0.48,0,0.66,0.86,1.35,2.66c0.99,2.58,1.86,5.05,2.81,7.65c0.15,0.41,0.32,0.7,0.56,1.43
			C84,85.84,83.07,85.89,81.7,85.85z"/>
	</g>
</g>
</svg>
