<svg width="40" height="40" viewBox="0 0 40 40" fill="none" xmlns="http://www.w3.org/2000/svg">
<path d="M25.4021 14C22.633 14 20.1583 15.363 20.1583 17.8813C20.1583 20.7693 24.5472 20.9688 24.5472 22.4197C24.5472 23.0306 23.81 23.5774 22.5509 23.5774C20.7639 23.5774 19.4284 22.8133 19.4284 22.8133L18.8569 25.3546C18.8569 25.3546 20.3955 26 22.4381 26C25.4657 26 27.848 24.57 27.848 22.0087C27.848 18.957 23.4408 18.7634 23.4408 17.4168C23.4408 16.9382 24.046 16.4139 25.3015 16.4139C26.7181 16.4139 27.8739 16.9696 27.8739 16.9696L28.4332 14.5152C28.4332 14.5152 27.1756 14 25.4021 14V14ZM0.0670522 14.1852L0 14.5557C0 14.5557 1.16499 14.7582 2.21425 15.1621C3.56526 15.6252 3.6615 15.8948 3.88903 16.7323L6.36843 25.809H9.69209L14.8124 14.1852H11.4964L8.20627 22.0883L6.86371 15.3893C6.74058 14.6226 6.11691 14.1852 5.35351 14.1852H0.0670522V14.1852ZM16.1459 14.1852L13.5445 25.809H16.7067L19.2988 14.1852H16.1459V14.1852ZM33.7821 14.1852C33.0196 14.1852 32.6156 14.5729 32.3192 15.2504L27.6865 25.809H31.0025L31.6441 24.0492H35.684L36.0741 25.809H39L36.4474 14.1852H33.7821V14.1852ZM34.2134 17.3256L35.1963 21.6874H32.563L34.2134 17.3256V17.3256Z" fill="#20225F"/>
</svg>
