<svg width="40" height="40" viewBox="0 0 40 40" fill="none" xmlns="http://www.w3.org/2000/svg">
<path fill-rule="evenodd" clip-rule="evenodd" d="M5.32904 15.0017C5.65066 14.9998 6.60649 14.9139 7.01136 16.277C7.28409 17.1952 7.71853 18.6993 8.31468 20.7892H8.55747C9.19678 18.5859 9.63596 17.0818 9.875 16.277C10.2841 14.8997 11.3068 15.0017 11.7159 15.0017L14.8721 15.0017V24.796H11.6552V19.024H11.4395L9.64623 24.796H7.22591L5.43264 19.0198H5.21692V24.796H2V15.0017L5.32904 15.0017ZM19.4916 15.0017V20.7779H19.7482L21.9296 16.0282C22.353 15.083 23.2555 15.0017 23.2555 15.0017H26.3685V24.796H23.0844V19.0198H22.8278L20.6892 23.7695C20.2657 24.7105 19.3205 24.796 19.3205 24.796H16.2075V15.0017H19.4916ZM37.7198 19.656C37.2617 20.951 35.8231 21.8784 34.2304 21.8784H30.7864V24.796H27.6634V19.656H37.7198Z" fill="#0F754E"/>
<path fill-rule="evenodd" clip-rule="evenodd" d="M34.3809 15.002H27.4995C27.6633 17.1825 29.5457 19.0492 31.4944 19.0492H37.9368C38.3085 17.2369 37.0287 15.002 34.3809 15.002Z" fill="#0043C9"/>
</svg>
