<?xml version="1.0" encoding="utf-8"?><svg xmlns="http://www.w3.org/2000/svg" xmlns:xlink="http://www.w3.org/1999/xlink"><symbol viewBox="0 0 24 24" id="arr-next" xmlns="http://www.w3.org/2000/svg"><path d="M20.25 12H3.75m6.75-6.75L3.75 12l6.75 6.75"/></symbol><symbol viewBox="0 0 15 15" id="arrow" xmlns="http://www.w3.org/2000/svg"><path d="M1 4l6.5 7L14 4"/></symbol><symbol viewBox="0 0 39 19" id="back" xmlns="http://www.w3.org/2000/svg"><path d="M37.477 7.922H5.213l5.345-5.319a1.523 1.523 0 10-2.15-2.16L.448 8.366l-.001.002a1.525 1.525 0 000 2.157l.001.001 7.96 7.922a1.524 1.524 0 002.15-2.16L5.213 10.97h32.264a1.523 1.523 0 100-3.047z"/></symbol><symbol viewBox="0 0 22 21" id="close" xmlns="http://www.w3.org/2000/svg"><path d="M.707 1.095l19.198 19.198m-18.484-.095L20.62 1"/></symbol><symbol viewBox="0 0 20 20" id="fb" xmlns="http://www.w3.org/2000/svg"><path d="M15.6 6.875h-3.75v-2.5c0-.69.56-1.25 1.25-1.25h1.25V0h-2.5A3.75 3.75 0 008.1 3.75v3.125H5.6V10h2.5v10h3.75V10h2.5l1.25-3.125z"/></symbol><symbol viewBox="0 0 20 20" id="inst" xmlns="http://www.w3.org/2000/svg"><path d="M13.75 0h-7.5A6.25 6.25 0 000 6.25v7.5A6.25 6.25 0 006.25 20h7.5A6.25 6.25 0 0020 13.75v-7.5A6.25 6.25 0 0013.75 0zm4.375 13.75a4.38 4.38 0 01-4.375 4.375h-7.5a4.38 4.38 0 01-4.375-4.375v-7.5A4.38 4.38 0 016.25 1.875h7.5a4.38 4.38 0 014.375 4.375v7.5z"/><path d="M10 5a5 5 0 100 10 5 5 0 000-10zm0 8.125A3.13 3.13 0 016.875 10 3.129 3.129 0 0110 6.875 3.129 3.129 0 0113.125 10 3.13 3.13 0 0110 13.125zM15.375 5.292a.666.666 0 100-1.333.666.666 0 000 1.333z"/><defs><linearGradient id="fpaint0_linear_101:4" x1="1.831" y1="18.169" x2="18.169" y2="1.831" gradientUnits="userSpaceOnUse"><stop stop-color="#FFC107"/><stop offset=".507" stop-color="#F44336"/><stop offset=".99" stop-color="#9C27B0"/></linearGradient><linearGradient id="fpaint1_linear_101:4" x1="6.465" y1="13.535" x2="13.535" y2="6.465" gradientUnits="userSpaceOnUse"><stop stop-color="#FFC107"/><stop offset=".507" stop-color="#F44336"/><stop offset=".99" stop-color="#9C27B0"/></linearGradient><linearGradient id="fpaint2_linear_101:4" x1="14.904" y1="5.097" x2="15.846" y2="4.155" gradientUnits="userSpaceOnUse"><stop stop-color="#FFC107"/><stop offset=".507" stop-color="#F44336"/><stop offset=".99" stop-color="#9C27B0"/></linearGradient></defs></symbol><symbol viewBox="0 0 25 25" id="inst2" xmlns="http://www.w3.org/2000/svg"><path d="M17.188 0H7.813A7.813 7.813 0 000 7.813v9.375A7.813 7.813 0 007.813 25h9.375A7.813 7.813 0 0025 17.187V7.813A7.813 7.813 0 0017.187 0zm5.468 17.188a5.475 5.475 0 01-5.468 5.468H7.813a5.475 5.475 0 01-5.47-5.468V7.813a5.475 5.475 0 015.47-5.47h9.375a5.475 5.475 0 015.468 5.47v9.375z"/><path d="M12.5 6.25a6.25 6.25 0 100 12.5 6.25 6.25 0 000-12.5zm0 10.156A3.912 3.912 0 018.594 12.5 3.91 3.91 0 0112.5 8.594a3.91 3.91 0 013.906 3.906 3.912 3.912 0 01-3.906 3.906zM19.219 6.615a.833.833 0 100-1.666.833.833 0 000 1.666z"/><defs><linearGradient id="gpaint4_linear" x1="2.289" y1="22.712" x2="22.712" y2="2.288" gradientUnits="userSpaceOnUse"><stop stop-color="#FFC107"/><stop offset=".507" stop-color="#F44336"/><stop offset=".99" stop-color="#9C27B0"/></linearGradient><linearGradient id="gpaint5_linear" x1="8.081" y1="16.919" x2="16.919" y2="8.081" gradientUnits="userSpaceOnUse"><stop stop-color="#FFC107"/><stop offset=".507" stop-color="#F44336"/><stop offset=".99" stop-color="#9C27B0"/></linearGradient><linearGradient id="gpaint6_linear" x1="18.63" y1="6.371" x2="19.807" y2="5.193" gradientUnits="userSpaceOnUse"><stop stop-color="#FFC107"/><stop offset=".507" stop-color="#F44336"/><stop offset=".99" stop-color="#9C27B0"/></linearGradient></defs></symbol><symbol viewBox="0 0 20 20" id="msg" xmlns="http://www.w3.org/2000/svg"><g clip-path="url(#hclip0_101:8)"><path d="M5.815 18.4v-3.188a5.99 5.99 0 01-3.045-2.224A6.27 6.27 0 011.6 9.341v-.8A6.237 6.237 0 013.35 4.2a5.895 5.895 0 014.222-1.8h4.858c1.583.002 3.1.65 4.22 1.8a6.237 6.237 0 011.75 4.34v.803a6.237 6.237 0 01-1.75 4.34 5.895 5.895 0 01-4.22 1.8H9.087L5.815 18.4zM7.57 2.924a5.39 5.39 0 00-3.86 1.647 5.702 5.702 0 00-1.6 3.97v.802a5.728 5.728 0 001.124 3.409 5.465 5.465 0 002.903 2.01l.189.053v2.434l2.57-2.291h3.532a5.39 5.39 0 003.859-1.647 5.702 5.702 0 001.6-3.968V8.54a5.702 5.702 0 00-1.6-3.968 5.39 5.39 0 00-3.859-1.646l-4.86-.002z"/></g><defs><clipPath id="hclip0_101:8"><path d="M0 0h20v20H0z"/></clipPath></defs></symbol><symbol viewBox="0 0 40 40" id="pay1" xmlns="http://www.w3.org/2000/svg"><g clip-path="url(#iclip0_102:50)"><path d="M36.205 13.98H33.94c-.247 0-.447.2-.447.447v.317h.157c1.022 0 1.402.168 1.402 1.101v1.326h1.15c.247.001.447-.2.447-.447l.001-2.296c0-.247-.2-.448-.446-.448zm-12.353 3.565c-.104-.132-.302-.15-.5-.15h-.148c-.494 0-.687.153-.796.627l-1.371 5.71c-.171.702-.412.83-.823.83-.504 0-.705-.12-.906-.832l-1.553-5.71c-.128-.479-.318-.625-.811-.625h-.133c-.199 0-.397.019-.5.152-.101.133-.067.332-.014.527l1.57 5.76c.293 1.102.643 2.015 1.95 2.015.245 0 .47-.034.658-.098-.396 1.25-.8 1.801-1.99 1.924-.24.02-.398.054-.485.172-.09.122-.07.296-.038.452l.033.148c.071.341.192.553.575.553.04 0 .083-.002.13-.006 1.776-.117 2.727-1.075 3.284-3.308l1.9-7.616c.045-.195.072-.394-.032-.525zm-9.557 4.387v1.153c0 .94-.348 1.483-2.125 1.483-1.174 0-1.745-.426-1.745-1.301 0-.96.573-1.335 2.042-1.335h1.828zm-2.125-4.78c-.969 0-1.576.123-1.806.169-.408.089-.578.2-.578.665v.133c0 .182.026.308.084.397.067.103.176.156.322.156.071 0 .154-.012.253-.037.233-.059.977-.18 1.791-.18 1.462 0 2.059.407 2.059 1.402v.888H12.45c-2.37 0-3.475.801-3.475 2.522 0 1.669 1.14 2.588 3.21 2.588 2.46 0 3.558-.84 3.558-2.72v-3.278c0-1.82-1.169-2.704-3.574-2.704zm-4.647 1.105c0 1.37-.35 2.112-2.191 2.112H2.497v-3.536c0-.49.182-.672.671-.672h2.164c1.388 0 2.19.343 2.19 2.096zm-2.191-3.515H2.887c-1.306 0-1.889.583-1.889 1.893v8.408c0 .506.162.668.667.668h.165c.505 0 .667-.162.667-.668v-3.271h2.835c2.517 0 3.69-1.117 3.69-3.515 0-2.399-1.173-3.515-3.69-3.515zm31.093-3.132h-1.142a.226.226 0 01-.225-.226v-1.158c0-.125.101-.226.226-.226h1.142c.124 0 .225.102.225.226v1.158a.226.226 0 01-.226.226zm2.24 2.372l-1.681-.001a.332.332 0 01-.332-.333v-1.705c0-.184.15-.333.333-.333h1.68c.184 0 .333.15.333.334l-.001 1.705a.332.332 0 01-.332.333zm-4.725 3.19a.447.447 0 01-.447-.449l.001-1.98h-.165c-1.022 0-1.402.17-1.402 1.102v2.676l-.002.049v3.05c0 .372-.071.669-.22.9-.278.43-.83.625-1.712.626-.882-.001-1.434-.197-1.713-.626-.148-.23-.22-.528-.22-.9v-3.578l-.002-.014v-2.182c0-.933-.38-1.102-1.401-1.102h-.322c-1.022 0-1.402.169-1.402 1.101v5.775c0 .928.209 1.715.613 2.349.78 1.228 2.29 1.883 4.439 1.883h.016c2.148 0 3.66-.655 4.44-1.883.403-.634.612-1.42.612-2.35v-4.447H33.94"/></g><defs><clipPath id="iclip0_102:50"><path transform="translate(1 10)" d="M0 0h38v19H0z"/></clipPath></defs></symbol><symbol viewBox="0 0 40 40" id="pay2" xmlns="http://www.w3.org/2000/svg"><path d="M15.33 13.187h8.343v13.625h-8.342V13.186z"/><path d="M16.19 20a8.65 8.65 0 013.31-6.81 8.666 8.666 0 100 13.625A8.65 8.65 0 0116.19 20zM32.692 25.37v-.279h.12v-.058h-.286v.058h.113v.28h.053zm.556 0v-.337h-.087l-.1.241-.102-.24h-.087v.336h.063v-.255l.094.22h.065l.094-.22v.255h.06zM33.52 20a8.664 8.664 0 01-14.02 6.812 8.664 8.664 0 000-13.626 8.666 8.666 0 0114.02 6.812V20z"/></symbol><symbol viewBox="0 0 40 40" id="pay3" xmlns="http://www.w3.org/2000/svg"><path d="M25.746 14.019c-2.696 0-5.105 1.358-5.105 3.869 0 2.88 4.272 3.078 4.272 4.524 0 .61-.717 1.155-1.943 1.155-1.74 0-3.04-.762-3.04-.762l-.555 2.533s1.497.644 3.485.644c2.947 0 5.266-1.426 5.266-3.98 0-3.042-4.29-3.235-4.29-4.577 0-.477.59-1 1.812-1 1.379 0 2.504.554 2.504.554l.544-2.447s-1.224-.513-2.95-.513zm-24.661.184l-.065.37s1.134.201 2.155.604c1.315.462 1.409.73 1.63 1.565l2.413 9.05h3.236l4.984-11.589H12.21l-3.203 7.879-1.306-6.678c-.12-.765-.727-1.2-1.47-1.2H1.085zm15.65 0l-2.531 11.588h3.078l2.523-11.588h-3.07zm17.168 0c-.743 0-1.136.387-1.425 1.062L27.97 25.791h3.228l.624-1.754h3.933l.38 1.754h2.847l-2.484-11.588h-2.594zm.42 3.13l.956 4.35h-2.563l1.606-4.35z"/><defs><linearGradient id="kpaint0_linear_102:54" x1="1.005" y1="18.106" x2="38.984" y2="18.106" gradientUnits="userSpaceOnUse"><stop stop-color="#20225F"/><stop offset=".2" stop-color="#1A1F61"/><stop offset=".41" stop-color="#172272"/><stop offset=".595" stop-color="#152682"/><stop offset=".802" stop-color="#12288E"/><stop offset="1" stop-color="#0E2C9A"/></linearGradient></defs></symbol><symbol viewBox="0 0 40 40" id="pay4" xmlns="http://www.w3.org/2000/svg"><path fill-rule="evenodd" clip-rule="evenodd" d="M6.355 15.302c.314-.002 1.249-.086 1.645 1.25.267.9.691 2.374 1.274 4.422h.238c.625-2.16 1.054-3.634 1.288-4.422.4-1.35 1.4-1.25 1.8-1.25h3.086v9.6H12.54v-5.658h-.21l-1.754 5.658H8.21L6.456 19.24h-.21v5.662H3.1v-9.6h3.255zm13.848 0v5.661h.25l2.134-4.655a1.685 1.685 0 011.296-1.006h3.044v9.6h-3.211V19.24h-.251l-2.091 4.656c-.414.922-1.339 1.006-1.339 1.006h-3.043v-9.6h3.21zm17.823 4.562c-.448 1.269-1.855 2.178-3.412 2.178h-3.367v2.86h-3.054v-5.038h9.833zM34.761 15.302h-6.728c.16 2.137 2 3.967 3.906 3.967h6.299c.364-1.777-.888-3.967-3.477-3.967z"/><defs><linearGradient id="lpaint0_linear_102:42" x1="38.3" y1="17.797" x2="28.033" y2="17.797" gradientUnits="userSpaceOnUse"><stop stop-color="#1F5CD7"/><stop offset="1" stop-color="#02AEFF"/></linearGradient></defs></symbol><symbol viewBox="0 0 138 51" id="the_valet_logo" xmlns="http://www.w3.org/2000/svg"><path fill-rule="evenodd" clip-rule="evenodd" d="M3.082 48.86c-.214-.183-.535-.32-.978-.427a3.55 3.55 0 01-.596-.183c-.138-.06-.23-.121-.275-.182a.47.47 0 01-.077-.26c0-.136.061-.258.184-.35a.76.76 0 01.473-.136c.352 0 .719.137 1.085.41l.382-.532a2.244 2.244 0 00-1.451-.503c-.398 0-.734.107-.978.32-.26.213-.382.487-.382.837 0 .183.03.336.091.473a.836.836 0 00.275.334c.123.092.26.168.413.229.153.06.336.122.565.167.245.061.428.122.566.183a.634.634 0 01.26.183.42.42 0 01.076.243c0 .153-.061.29-.199.381-.122.091-.305.137-.52.137-.244 0-.458-.046-.656-.122a2.606 2.606 0 01-.596-.38l-.428.502a2.43 2.43 0 001.665.64c.428 0 .764-.107 1.04-.32a1.07 1.07 0 00.397-.868c-.03-.35-.122-.594-.336-.777zm5.394-.214l-1.223-1.888h-.749v3.99h.688V47.9l1.253 1.873h.015l1.269-1.888v2.863h.703v-3.99h-.734l-1.222 1.888zm6.692-1.918l-1.757 4.02h.718l.413-.96h1.895l.397.96h.749l-1.758-4.02h-.657zm-.366 2.436l.687-1.599.688 1.599h-1.375zm8.77-.35c.169-.198.26-.457.26-.777 0-.38-.137-.7-.397-.929-.26-.228-.627-.35-1.1-.35h-1.788v3.99h.703v-1.386h.87l.994 1.386h.825l-1.085-1.508c.321-.091.55-.228.719-.426zm-2.307-.076v-1.34h1.024c.26 0 .474.06.611.167.153.107.214.274.214.487a.628.628 0 01-.23.503c-.152.122-.35.183-.595.183h-1.024zm5.425-1.325h1.283v3.335h.703v-3.335h1.268v-.655H26.69v.655zm12.896 1.005h-1.91v-1.66h-.703v3.99h.703v-1.675h1.91v1.675h.703v-3.99h-.703v1.66zm5.44-1.69l-1.757 4.02h.718l.413-.96h1.894l.398.96h.748l-1.772-4.02h-.642zm-.382 2.436l.688-1.599.687 1.599h-1.375zm8.068-.487c.382-.198.565-.488.565-.899a.894.894 0 00-.275-.67c-.229-.228-.58-.35-1.054-.35h-1.803v3.99h1.88c.458 0 .81-.092 1.084-.29.26-.182.398-.457.398-.807 0-.259-.061-.472-.199-.624a1.266 1.266 0 00-.596-.35zm-1.849-1.294h1.009c.229 0 .397.045.52.136a.434.434 0 01.182.366c0 .183-.06.32-.198.411-.138.091-.321.137-.55.137h-.963v-1.05zm1.742 2.603c-.137.092-.32.137-.565.137h-1.162v-1.096h1.116c.275 0 .474.046.611.137a.459.459 0 01.214.396c-.015.198-.076.335-.214.426zm4.034.762h.703v-3.99h-.703v3.99zm3.76-3.335h1.283v3.335h.703v-3.335h1.268v-.655h-3.255v.655zm6.157 3.335h.764v-.731h-.764v.73zm10.498-2.071c.382-.198.565-.488.565-.899a.894.894 0 00-.275-.67c-.23-.228-.58-.35-1.054-.35h-1.803v3.99h1.848c.459 0 .81-.092 1.085-.29.26-.182.398-.457.398-.807 0-.259-.061-.472-.2-.624-.121-.152-.32-.274-.564-.35zm-1.85-1.294h1.01c.228 0 .397.045.519.136a.434.434 0 01.183.366c0 .183-.061.32-.199.411-.137.091-.32.137-.55.137h-.962v-1.05zm1.727 2.603c-.137.092-.32.137-.565.137h-1.161v-1.096h1.115c.275 0 .474.046.611.137a.459.459 0 01.214.396.475.475 0 01-.214.426zm4.691-.929h2.002v-.624h-2.002v-1.05h2.262v-.625h-2.965v3.99h2.995v-.625h-2.292v-1.066zm5.012-1.644h1.284v3.335h.703v-3.335h1.268v-.655h-3.255v.655zm5.883 0h1.284v3.335h.703v-3.335h1.268v-.655h-3.255v.655zm6.876 1.644h2.002v-.624h-2.002v-1.05h2.262v-.625H98.69v3.99h2.995v-.625h-2.292v-1.066zm8.42-.243c.168-.198.26-.457.26-.777 0-.38-.138-.7-.398-.929-.259-.228-.626-.35-1.1-.35h-1.788v3.99h.703v-1.386h.871l.993 1.386h.826l-1.085-1.508c.321-.091.55-.228.718-.426zm-2.307-.076v-1.34h1.023c.26 0 .474.06.611.167.153.107.214.274.214.487a.627.627 0 01-.229.503c-.153.122-.351.183-.596.183h-1.023zm10.421-1.98h-.703v3.99h2.811v-.64h-2.108v-3.35zm5.164 3.99h.703v-3.99h-.703v3.99zm4.05 0h.703v-1.63h2.017v-.64h-2.017v-1.08h2.276v-.64h-2.979v3.99zm6.754-1.69h2.001v-.625h-2.001v-1.05h2.261v-.625h-2.98v3.99h2.995v-.625h-2.292v-1.066h.016zm5.287.959v.73h.764v-.73h-.764z"/><path d="M64.57.637c-.077 0-.123.03-.184.061l-.03.016c-.077.045-.184.106-.459.121-.32.016-1.42.016-1.849.016a29.99 29.99 0 01-1.88-.046c-.045 0-.121-.061-.183-.107L59.97.683c-.03-.015-.046-.046-.046-.06-.015-.031-.076-.107-.168-.107-.137 0-.275.152-.275.274 0 .289-.06.563-.107.776-.03.137-.046.229-.046.305 0 .167.077.335.23.335.122 0 .214-.076.29-.244a1.59 1.59 0 01.23-.365l.014-.016c.077-.076.184-.137.49-.137.122 0 .687.016.916.03v.914c0 .61-.046 2.254-.06 2.726-.032.579-.032.624-.49.73-.137.031-.275.138-.275.29 0 .122.107.244.397.244.03 0 .107 0 .214-.015.184-.016.443-.046.703-.046.245 0 .566.015.749.03.092 0 .153.016.168.016.336 0 .382-.153.382-.244 0-.168-.214-.259-.336-.29-.428-.09-.428-.136-.459-.44-.03-.29-.03-1.067-.03-1.98V1.475c.199-.015.901-.015 1.039 0 .474.015.474.046.504.35.015.137.046.396.26.396.153 0 .275-.152.29-.29.046-.41.092-.654.168-.898a.344.344 0 00-.015-.304c-.015-.061-.076-.092-.137-.092zm14.363 4.34c-.046-.046-.092-.076-.153-.076-.153 0-.244.152-.32.304-.2.381-.398.473-.581.518-.138.03-.535.046-.734.046-.29 0-.535-.03-.688-.046a.163.163 0 01-.045-.076 2.717 2.717 0 01-.077-.609v-.183c0-.289 0-.807.016-1.005.213 0 .489 0 .718.016.412.015.412.015.504.304.03.137.138.29.29.29.061 0 .107-.031.153-.061.076-.092.092-.229.092-.32 0-.046 0-.107-.016-.153 0-.106-.015-.197-.015-.334 0-.198.016-.366.03-.564 0-.015.016-.183-.076-.274a.197.197 0 00-.152-.06c-.184 0-.26.197-.29.258-.123.305-.123.305-.795.305h-.428c0-.29.015-1.538.03-1.752 0-.045.016-.076.016-.09.351-.016.886 0 1.07.03.198.03.32.076.412.426.061.29.214.32.275.32.153 0 .275-.153.275-.366v-.228c0-.137-.015-.305-.015-.533v-.03c-.016-.061-.061-.153-.123-.183-.045-.015-.076-.03-.122-.015-.122.015-.458.015-.718.015h-1.192c-.29 0-.52-.015-.718-.015-.168 0-.336-.016-.52-.016-.229 0-.382.107-.382.26 0 .197.214.258.352.288.29.061.32.107.336.396.015.153.015.274.015.655v.685c0 1.036-.046 1.98-.06 2.269-.031.335-.093.365-.474.457-.107.03-.337.091-.337.274 0 .259.29.259.398.259.152 0 .26-.016.382-.016.152-.015.29-.015.52-.015 1.038 0 2.016.046 2.429.061h.198c.138 0 .26-.152.26-.152.092-.107.306-.822.321-.929a.378.378 0 00-.061-.335zm-6.571-3.609c.29-.076.352-.197.352-.289 0-.091-.046-.243-.382-.243h-.199c-.152 0-.366.015-.534.015-.123 0-.337 0-.52-.015h-.306c-.336 0-.397.137-.397.243 0 .137.107.244.321.305.306.076.306.106.336.32.03.304.03 1.34.015 1.43 0 .031 0 .062-.015.077-.87 0-1.62.015-2.17.015h-.687v-.015c-.016-.137 0-1.188.03-1.447.016-.304.03-.335.306-.396.107-.015.351-.06.351-.304 0-.076-.046-.244-.412-.244h-.275c-.138 0-.306.016-.49.016h-.35c-.138 0-.276-.016-.383-.016-.351 0-.382.183-.382.244 0 .107.061.244.352.304.26.061.275.107.275.32.015.274 0 .777 0 1.05v.184c0 1.142-.046 2.086-.077 2.527-.03.229-.03.274-.397.366-.275.076-.306.228-.306.304 0 .152.138.228.398.228.153 0 .336-.015.489-.015.122 0 .229-.015.32-.015.2 0 .49.015.673.03h.168c.23 0 .306-.06.336-.106.03-.046.061-.091.046-.152-.015-.198-.199-.26-.351-.29-.26-.076-.321-.167-.321-.487v-.32c0-.365-.016-.99 0-1.142h1.314c.489 0 1.054.016 1.574.016v.015c0 .41-.016.974-.03 1.294-.016.533-.047.548-.383.655-.183.045-.29.152-.29.29 0 .106.06.243.351.243.077 0 .275-.016.459-.03.183-.016.397-.031.489-.031.137 0 .305.015.428.015.091 0 .183.015.244.015.244 0 .382-.076.382-.243 0-.077-.03-.214-.29-.305-.337-.091-.337-.091-.352-.304 0-.046 0-.168-.015-.335-.015-.274-.015-.64-.015-.853 0-1.294.015-2.208.06-2.634-.03-.137-.014-.229.26-.29zm65.523 14.039c-.352 1.112-.581 2.254-.795 4.111-.031.32-.321.685-.611.685-.245 0-.398-.243-.505-1.142-.213-1.857-.687-2.04-2.903-2.146-.611-.031-4.599-.031-5.027.076-.183.03-.321.396-.321.472v8.755c0 4.141 0 7.552.138 8.862.183 1.614.351 2.04 2.582 2.542.474.107.963.396.963.64 0 .396-.642.426-1.009.426-.29 0-2.506-.183-4.095-.183-1.788 0-3.621.244-4.095.244-.718 0-1.07-.213-1.07-.426 0-.244.352-.533.688-.61 2.506-.578 2.582-1.187 2.689-3.867.077-2.116.245-9.41.245-12.166v-4.248c0-.29-.184-.472-.291-.472-.718-.106-3.881-.183-4.446-.183-1.36 0-2.124.214-2.659.823-.137.106-.581.685-1.192 1.857-.321.746-.535.716-.687.716-.214 0-.352-.472-.352-.822 0-.685.688-2.65.688-4.75 0-.214.321-.58.535-.58.183 0 .183.244.58.58.107.106.688.639 1.223.684.932.107 3.804.213 8.404.213 1.864 0 6.754-.03 8.221-.076 1.298-.076 1.94-.289 2.444-.64.245-.136.352-.212.505-.212.183.015.336.335.153.837zm-31.554 19.14c-.031.289-1.039 3.502-1.299 3.821-.107.137-.428.427-.611.427-.398 0-5.807-.29-11.66-.29-1.894 0-2.689.183-4.048.183-.688 0-1.07-.076-1.07-.472 0-.244.428-.426 1.008-.578 1.788-.427 2.476-.686 2.613-2.604.107-1.508.29-5.725.29-10.156 0-4.248.031-5.01-.03-6.045-.076-1.568-.428-2.01-2.017-2.36-.749-.183-1.039-.32-1.039-.61 0-.319.504-.502 1.008-.502 1.681 0 3.087.137 5.486.137h5.272c1.192 0 2.766-.03 3.3-.106.107-.03.291.213.321.396 0 1.644.077 2.68.077 3.395 0 .503-.214.929-.535.929-.321 0-.504-.502-.581-.853-.473-1.888-1.253-2.253-2.399-2.436-.932-.137-3.514-.213-5.103-.137-.077 0-.474.183-.535 1.005-.077.898-.184 7.613-.107 8.146.03.137.076.35.244.35h2.338c3.377 0 3.515-.137 4.156-1.781.214-.533.428-.746.642-.746.245 0 .321.502.291.791a31.265 31.265 0 00-.107 2.574c0 .959.076 1.462.107 2.177.03.64-.138 1.035-.398 1.035-.244 0-.504-.395-.611-.791-.504-1.645-.642-1.751-2.842-1.858-1.146-.076-2.583-.076-3.545-.076-.138 0-.321.244-.321.32-.138.746-.107 4.08-.107 5.618 0 1.036.137 2.39.352 2.97.137.426.427.715.687.791.611.107 1.834.244 3.27.244.428 0 2.613-.03 3.408-.244 1.146-.29 2.124-.96 2.979-2.65.398-.791.611-1.004.825-1.004.26.015.367.594.291.99zm-27.2-.29c-.58 1.751-.824 2.497-1.115 3.868-.03.396-.718.609-.855.609-.428 0-3.698-.213-10.987-.213-2.445 0-4.126.182-4.63.182-.688 0-1.039-.076-1.039-.396 0-.243.29-.532.856-.639 1.97-.396 2.475-1.066 2.658-2.467.077-.898.184-6.578.184-11.77 0-1.43 0-3.898-.03-5.085-.031-.792-.215-1.462-1.895-1.782-.719-.137-1.009-.426-1.009-.685 0-.243.29-.426 1.07-.426.962 0 1.62.076 2.659.076 1.405 0 3.835-.107 4.706-.107.642 0 .901.137.901.396 0 .244-.29.472-.825.61-2.078.471-2.338.852-2.399 1.4-.214 1.614-.214 5.223-.214 10.506 0 2.787.107 6.228.245 7.4.076.503.932 1.325 1.222 1.355.932.137 2.262.183 3.438.183 1.009 0 2.017-.03 2.552-.106.29-.03.718-.03 1.436-.686.505-.502 1.07-1.035 2.048-2.39.397-.64.718-.792.901-.792.169 0 .276.38.123.96zM42.567 27.39c-.611-1.827-2.475-7.187-2.796-7.69-.107-.212-.184-.243-.29 0-.642 1.722-2.507 6.73-2.797 7.827-.03.137.03.244.183.244 1.437-.03 4.416 0 5.593-.107.03.015.138-.167.107-.274zm8.68 11.298c-1.193 0-2.95-.183-4.524-.183-1.146 0-1.65.077-2.552.077-.901 0-1.115-.244-1.115-.427s.214-.472.856-.578c1.726-.35 1.573-1.066 1.436-1.828-.29-1.461-1.192-3.821-2.017-6.12-.03-.138-.183-.35-1.222-.35-1.972 0-5.135.03-5.883.136-.138 0-.321.183-.398.29-.932 2.33-1.864 5.36-1.864 6.258 0 .426.138 1.035 1.757 1.538.612.182.963.395.963.639 0 .35-.535.472-1.008.472-.612 0-1.513-.107-2.843-.107-1.329 0-3.193.183-3.728.183-.642 0-.825-.137-.825-.35 0-.213.244-.533.794-.716 1.788-.609 2.262-.715 3.301-3.045.825-1.827 4.92-12.623 6.418-16.277.214-.502.244-.716.32-.929.031-.106.108-.32.245-.609l.856-1.431c.244-.29.397-.472.58-.472.138 0 .29.137.581.929.29.959.902 2.573 1.574 4.43 1.864 5.223 4.553 12.304 5.165 13.765 1.192 2.939 1.757 3.213 3.377 3.609.58.183.855.35.855.609s-.198.487-1.1.487zm-27.49-22.246c-1.574.396-2.369 1.249-3.117 2.833-1.65 3.578-2.552 5.116-4.737 10.506-2.078 5.04-2.552 5.938-3.377 8.648-.138.396-.397.792-.749.792-.214 0-.504-.244-.58-.64-.214-1.035-.826-3.212-1.865-5.831-1.222-3.259-4.63-11.907-5.164-13.201-.719-1.782-1.467-2.68-3.056-3.152-.428-.137-.826-.29-.826-.61 0-.289.535-.471 1.07-.471.718 0 2.017.182 3.774.182 1.253 0 2.72-.076 3.545-.076.474 0 .856.183.856.427 0 .243-.183.533-.856.64-1.894.35-1.833 1.141-1.68 1.72.61 1.857 4.492 11.876 5.775 14.952.077.076.245.29.352.03.29-.746 4.202-9.942 5.806-13.81.856-2.01-.107-2.436-1.65-2.893-.504-.137-.794-.426-.794-.64 0-.243.473-.426 1.039-.426.825 0 1.65.076 2.872.076 1.04 0 2.476-.137 3.224-.137.505 0 1.04.137 1.04.472.045.29-.398.503-.902.61z"/></symbol></svg>