<svg width="336" height="136" viewBox="0 0 336 136" fill="none" xmlns="http://www.w3.org/2000/svg">
<g clip-path="url(#clip0_2_77)">
<path fill-rule="evenodd" clip-rule="evenodd" d="M156.863 0.292299C156.786 0.292299 156.726 0.333409 156.589 0.411053C156.188 0.65833 155.723 0.782207 155.252 0.7673C154.444 0.7673 151.765 0.803832 150.743 0.803832C148.223 0.803832 146.635 0.744458 146.137 0.68965C145.882 0.634194 145.648 0.503835 145.466 0.315144C145.252 0.13702 145.252 0 145.152 0C145.077 0.0187174 145.01 0.0583388 144.957 0.114182C144.905 0.170025 144.869 0.239759 144.855 0.315144C144.855 1.47523 144.481 2.55767 144.481 2.93219C144.481 3.12858 144.563 3.38892 144.677 3.38892C144.791 3.38892 144.878 3.41176 145.051 2.99614C145.217 2.62467 145.437 2.27988 145.704 1.97306C145.996 1.63964 146.411 1.51633 147.16 1.51633C147.475 1.51633 149.205 1.55288 149.602 1.61225C149.661 1.61225 149.757 1.71273 149.757 1.86802V4.21559C149.757 5.73193 149.661 9.75114 149.62 10.9112C149.561 12.3865 149.519 12.7381 148.146 13.0396C147.968 13.0761 147.771 13.236 147.771 13.373C147.771 13.51 147.968 13.6105 148.36 13.6105C148.616 13.6105 149.62 13.4735 150.606 13.4735C151.468 13.4735 152.692 13.5694 152.847 13.5694C153.002 13.5694 153.399 13.5694 153.399 13.3365C153.399 13.1949 153.125 13.0396 152.87 12.9802C151.646 12.7016 151.551 12.4687 151.45 11.5826C151.373 10.8519 151.373 8.97928 151.373 6.69564V1.86802C151.373 1.83148 151.45 1.63509 151.551 1.61225C151.783 1.55288 153.97 1.55287 154.289 1.5757C155.508 1.63508 155.763 1.731 155.882 2.75407C155.941 3.24734 156.019 3.38436 156.156 3.38436C156.293 3.38436 156.471 3.18796 156.494 3.00984C156.558 2.23551 156.703 1.47008 156.927 0.726196C157.041 0.470429 156.964 0.292299 156.863 0.292299ZM175.823 0.749027C175.609 0.749027 174.7 0.808404 174.034 0.808404C173.541 0.808404 172.281 0.771872 172.026 0.771872C171.61 0.771872 171.414 0.849516 171.414 0.986535C171.414 1.12355 171.633 1.2834 171.907 1.36104C172.792 1.59854 172.929 1.75384 172.989 2.4846C173.048 3.21537 173.048 5.81414 173.03 6.06991C172.989 6.4627 172.929 6.58146 172.811 6.58146C169.328 6.58146 166.649 6.64082 165.508 6.64082C165.371 6.64082 165.312 6.64083 165.293 6.24804C165.275 5.85525 165.293 3.31127 165.348 2.66272C165.408 1.83604 165.467 1.53917 166.393 1.36104C166.809 1.2834 166.964 1.18293 166.964 0.986535C166.964 0.867786 166.749 0.771872 166.334 0.771872C165.919 0.771872 165.293 0.808404 164.463 0.808404C163.952 0.808404 163.226 0.771872 162.674 0.771872C162.359 0.771872 162.103 0.849516 162.103 0.986535C162.103 1.12355 162.24 1.2834 162.655 1.36104C163.481 1.53917 163.6 1.81778 163.637 2.4846C163.678 3.35239 163.637 5.16559 163.637 5.51727C163.637 8.71437 163.518 10.9569 163.459 11.7608C163.399 12.5646 163.226 12.729 162.222 12.9848C162.003 13.0442 161.765 13.1629 161.765 13.3593C161.765 13.4781 161.925 13.5557 162.359 13.5557C163.03 13.5557 163.856 13.478 164.308 13.478C165.015 13.478 166.215 13.5557 166.352 13.5557C166.613 13.5557 166.946 13.5146 166.927 13.3593C166.909 13.204 166.768 13.0807 166.334 12.9665C165.508 12.7062 165.293 12.3545 165.271 11.4273C165.271 10.8564 165.234 8.33529 165.271 7.82376C165.275 7.75391 165.297 7.68639 165.336 7.62791C165.374 7.56944 165.427 7.52202 165.49 7.49034C165.882 7.44924 169.762 7.49034 172.793 7.49034C172.952 7.49034 173.03 7.54971 173.03 7.9014C173.03 8.88793 172.989 10.249 172.952 11.0985C172.893 12.4961 172.792 12.7107 171.729 13.0305C171.515 13.0853 171.295 13.204 171.295 13.3821C171.295 13.5603 171.492 13.6014 171.788 13.6014C172.181 13.6014 173.66 13.4826 174.093 13.4826C174.7 13.4826 175.412 13.542 175.727 13.542C176.042 13.542 176.28 13.4826 176.28 13.3228C176.28 13.1629 176.102 13.0487 175.823 12.9482C174.938 12.6925 174.741 12.6148 174.7 11.8475C174.7 11.5507 174.623 9.79682 174.623 8.92903C174.623 5.58121 174.682 3.44829 174.782 2.44806C174.819 1.87715 174.979 1.53461 175.805 1.32908C176.22 1.2286 176.375 1.09158 176.375 0.972834C176.375 0.854084 176.138 0.744469 175.823 0.744469V0.749027ZM191.579 10.7605C191.46 10.7605 191.342 10.8747 191.122 11.3086C190.983 11.6625 190.763 11.9787 190.479 12.2317C190.195 12.4848 189.856 12.6676 189.488 12.7655C188.871 12.8645 188.247 12.9119 187.622 12.9071C187.021 12.9092 186.421 12.8619 185.828 12.7655C185.737 12.7275 185.656 12.669 185.591 12.5946C185.526 12.5201 185.479 12.4317 185.454 12.3362C185.314 11.8027 185.248 11.2526 185.257 10.7011C185.257 9.85163 185.257 8.02015 185.317 7.60452C185.317 7.56799 185.417 7.43097 185.495 7.43097C186.024 7.43097 186.814 7.43096 187.444 7.4675C188.644 7.52687 188.722 7.58626 188.996 8.49058C189.055 8.70981 189.196 8.94731 189.333 8.94731C189.47 8.94731 189.571 8.73265 189.548 8.3764C189.525 8.02015 189.488 7.70957 189.488 7.1752C189.488 6.64083 189.511 6.30741 189.548 5.75934C189.571 5.59948 189.548 5.32545 189.393 5.32545C189.237 5.32545 189.155 5.4442 189.037 5.73651C188.681 6.64996 188.603 6.72304 186.754 6.72304H185.472C185.376 6.72304 185.358 6.60428 185.335 6.52664C185.298 6.22976 185.358 2.5257 185.394 2.03243C185.431 1.53917 185.65 1.48437 185.691 1.48437C186.623 1.44532 187.556 1.47125 188.484 1.562C189.114 1.66248 189.548 1.85887 189.803 2.90021C189.844 3.09661 189.945 3.35694 190.118 3.35694C190.292 3.35694 190.415 3.11945 190.415 2.84541C190.415 2.44806 190.374 1.87716 190.374 0.972834C190.374 0.872353 190.26 0.73533 190.2 0.753599C189.904 0.794705 189.037 0.812976 188.375 0.812976H185.481C184.162 0.812976 183.395 0.735326 182.469 0.735326C182.19 0.735326 181.916 0.835813 181.916 1.01394C181.916 1.19206 182.076 1.24686 182.487 1.34734C183.354 1.54373 183.55 1.78124 183.591 2.64902C183.628 3.21993 183.591 3.63098 183.591 5.974C183.591 8.4175 183.491 10.7422 183.436 11.5689C183.354 12.6331 182.98 12.7701 181.999 13.0076C181.684 13.0853 181.446 13.1857 181.446 13.3228C181.446 13.542 181.661 13.5785 182.035 13.5785C182.784 13.5785 183.217 13.4826 184.262 13.4826C187.457 13.4826 190.442 13.6379 190.652 13.6379C190.753 13.6379 190.931 13.4826 190.99 13.4004C191.276 12.7165 191.513 12.0128 191.698 11.2949C191.775 11.0711 191.716 10.7559 191.579 10.7559V10.7605Z" fill="white"/>
<path fill-rule="evenodd" clip-rule="evenodd" d="M57.0164 36.0313C55.1907 36.0313 51.6763 36.383 49.134 36.383C46.1581 36.383 44.1453 36.2049 42.1279 36.2049C40.7267 36.2049 39.5902 36.6616 39.5902 37.2599C39.5902 37.7852 40.2885 38.484 41.5163 38.8357C45.2818 39.9775 47.646 41.028 45.5465 45.9332C41.603 55.4012 32.0546 77.927 31.3563 79.7676C31.0916 80.3797 30.6534 79.8544 30.48 79.6763C27.3261 72.1403 17.869 47.6003 16.3811 43.0421C16.0297 41.64 15.8517 39.7126 20.4889 38.8357C22.1548 38.5753 22.593 37.872 22.593 37.2599C22.593 36.6479 21.63 36.2049 20.4889 36.2049C18.4761 36.2049 14.884 36.383 11.8169 36.383C7.52194 36.383 4.37262 35.9263 2.61996 35.9263C1.30546 35.9263 -0.0090332 36.383 -0.0090332 37.0636C-0.0090332 37.8537 0.95402 38.2054 2.00379 38.5571C5.86056 39.6943 7.69994 41.8866 9.45261 46.2666C10.7625 49.4226 19.0831 70.6331 22.0636 78.6076C23.9555 83.2431 25.4815 88.0199 26.6278 92.894C26.8012 93.8577 27.5041 94.4697 28.029 94.4697C28.9053 94.4697 29.5169 93.506 29.8547 92.5423C31.8675 85.8832 33.004 83.6909 38.0703 71.3319C43.415 58.0868 45.6058 54.3324 49.6315 45.5678C51.4572 41.7085 53.4015 39.6075 57.2537 38.6438C58.4815 38.3789 59.5359 37.8537 59.5359 37.1549C59.5587 36.383 58.2442 36.0313 57.0164 36.0313ZM125.051 90.5464C121.112 89.5827 119.711 88.8794 116.835 81.695C115.343 78.1006 108.775 60.7449 104.22 47.952C102.558 43.3847 101.07 39.4477 100.367 37.0818C99.6691 35.1544 99.3176 34.7982 98.9662 34.7982C98.5098 34.7982 98.1766 35.2549 97.565 35.94L95.4654 39.4431C95.2224 39.9246 95.0164 40.4238 94.8493 40.9366C94.6399 41.7154 94.376 42.4785 94.0597 43.2203C90.3855 52.1584 80.3989 78.6258 78.3861 83.0972C75.8438 88.7926 74.7073 89.0575 70.3257 90.5464C69.0112 91.0032 68.3996 91.7705 68.3996 92.3003C68.3996 92.8301 68.856 93.1772 70.4124 93.1772C71.7269 93.1772 76.282 92.7205 79.5409 92.7205C82.7997 92.7205 84.9723 92.9808 86.4602 92.9808C87.5967 92.9808 88.9112 92.7204 88.9112 91.8435C88.9112 91.2269 88.0349 90.7017 86.5469 90.2633C82.608 89.0392 82.2566 87.5457 82.2566 86.4953C82.2566 84.303 84.5387 76.8537 86.8208 71.1583C86.9942 70.8934 87.4324 70.455 87.7838 70.455C89.6095 70.1946 97.3276 70.1078 102.147 70.1078C104.685 70.1078 105.037 70.6331 105.123 70.9848C107.141 76.5934 109.327 82.3756 110.03 85.97C110.381 87.7969 110.728 89.5645 106.525 90.4414C104.95 90.7017 104.425 91.4051 104.425 91.8435C104.425 92.282 104.95 92.894 107.141 92.894C109.332 92.894 110.555 92.7205 113.357 92.7205C117.209 92.7205 121.504 93.1772 124.393 93.1772C126.584 93.1772 127.196 92.6474 127.196 92.0354C127.196 91.4234 126.475 90.9849 125.051 90.5464ZM102.914 66.18C100.021 66.4449 92.7543 66.3581 89.249 66.4449C88.8975 66.4449 88.7241 66.18 88.7925 65.8283C89.4954 63.1153 94.046 50.8431 95.6389 46.6457C95.899 46.0337 96.0953 46.1205 96.3372 46.6457C97.1268 47.8743 101.682 61.0189 103.184 65.4903C103.201 65.6187 103.186 65.7495 103.139 65.8703C103.092 65.991 103.014 66.0977 102.914 66.18ZM192.072 79.9412C191.615 79.9412 190.849 80.2929 189.886 81.8686C188.424 83.9905 186.751 85.9584 184.892 87.7421C183.14 89.3178 182.09 89.3178 181.387 89.4046C179.321 89.6082 177.246 89.6966 175.171 89.6695C172.361 89.7093 169.552 89.5567 166.763 89.2128C166.06 89.126 163.961 87.1073 163.783 85.8832C163.436 82.9921 163.171 74.5746 163.171 67.742C163.171 54.7709 163.171 45.915 163.696 41.9734C163.869 40.658 164.486 39.6897 169.566 38.5571C170.88 38.2054 171.578 37.6801 171.578 37.0636C171.578 36.447 170.967 36.0999 169.388 36.0999C167.288 36.0999 161.332 36.3648 157.918 36.3648C155.375 36.3648 153.81 36.1866 151.437 36.1866C149.506 36.1866 148.808 36.6434 148.808 37.2417C148.808 37.84 149.506 38.5571 151.259 38.9042C155.366 39.6943 155.823 41.3614 155.9 43.2888C155.987 46.1799 155.987 52.2269 155.987 55.7346C155.987 68.4408 155.727 82.3756 155.553 84.5679C155.097 87.9842 153.888 89.6512 149.072 90.6149C147.666 90.8798 146.968 91.5786 146.968 92.1906C146.968 92.9808 147.844 93.1589 149.506 93.1589C150.734 93.1589 154.851 92.7022 160.807 92.7022C178.607 92.7022 186.558 93.2274 187.608 93.2274C187.959 93.2274 189.621 92.7022 189.708 91.7339C190.41 88.4044 191.022 86.5638 192.423 82.2705C192.775 80.9049 192.51 79.9412 192.072 79.9412ZM258.112 80.64C257.587 80.64 257.062 81.1698 256.099 83.0972C253.995 87.2078 251.63 88.8794 248.828 89.5827C246.916 90.108 241.562 90.1993 240.526 90.1993C237.857 90.2093 235.192 90.0046 232.557 89.5873C232.151 89.4136 231.79 89.1498 231.501 88.8158C231.213 88.4819 231.004 88.0866 230.891 87.6599C230.366 86.2578 230.019 82.9236 230.019 80.3842C230.019 76.6162 229.928 68.4636 230.279 66.623C230.279 66.4495 230.735 65.8329 231.069 65.8329C233.433 65.8329 236.938 65.8329 239.741 66.011C245.081 66.2713 245.432 66.5362 246.66 70.5783C246.92 71.542 247.532 72.5057 248.148 72.5057C248.764 72.5057 249.198 71.542 249.111 69.9617C249.024 68.2124 248.846 66.9838 248.846 64.618C248.846 62.5124 248.933 60.7586 249.111 58.306C249.198 57.6072 249.024 56.3786 248.408 56.3786C247.883 56.3786 247.358 56.9038 246.833 58.2055C245.254 62.2384 244.907 62.5855 236.673 62.5855H230.964C230.507 62.5855 230.439 62.0603 230.347 61.7132C230.174 60.3978 230.439 43.9008 230.612 41.7267C230.786 39.7126 231.749 39.2741 231.927 39.2741C235.779 39.1006 242.087 39.2741 244.364 39.6258C247.167 40.0825 249.093 40.9412 250.229 45.5861C250.407 46.463 250.845 47.6871 251.63 47.6871C252.415 47.6871 252.945 46.6366 252.945 45.4034C252.945 43.6542 252.771 41.1102 252.771 37.0773C252.685 36.6205 252.247 36.0268 251.982 36.1136C250.667 36.2917 246.815 36.3785 243.926 36.3785H231.05C225.181 36.3785 221.767 36.0268 217.65 36.0268C216.422 36.0268 215.199 36.4835 215.199 37.2554C215.199 37.9542 215.897 38.3059 217.736 38.7443C221.589 39.6212 222.465 40.6717 222.643 44.5265C222.816 47.0705 222.73 48.9111 222.73 59.3382C222.73 70.2083 222.273 80.5486 222.027 84.2299C221.68 88.9616 220.014 89.5782 215.637 90.6241C214.231 90.9757 213.181 91.4142 213.181 92.0262C213.181 92.9899 214.144 93.168 215.81 93.168C219.138 93.168 221.064 92.7113 225.706 92.7113C239.983 92.7113 253.21 93.4101 254.173 93.4101C254.629 93.4101 255.396 92.7113 255.661 92.3596C256.272 91.5695 258.728 83.6818 258.814 82.983C258.988 82.0422 258.728 80.64 258.112 80.64ZM335.462 34.104C335.115 34.104 334.85 34.2775 334.238 34.6292C333.011 35.5061 331.436 36.0313 328.305 36.2049C324.713 36.2963 312.786 36.383 308.25 36.383C297.035 36.383 290.029 36.1181 287.752 35.8578C286.437 35.771 285.036 34.4556 284.776 34.1907C283.813 33.4006 283.813 32.7886 283.375 32.7886C282.85 32.7886 282.06 33.6655 282.06 34.1907C282.06 39.3609 280.394 44.184 280.394 45.8464C280.394 46.7234 280.746 47.8652 281.271 47.8652C281.622 47.8652 282.147 47.952 282.936 46.1113C284.424 43.2203 285.474 41.8181 285.826 41.5441C287.14 40.0551 288.979 39.5299 292.307 39.5299C293.708 39.5299 301.435 39.7034 303.17 39.9866C303.43 39.9866 303.868 40.4433 303.868 41.1239V51.5555C303.868 58.3014 303.412 76.1823 303.256 81.3525C302.992 87.9248 302.8 89.4137 296.688 90.8159C295.899 90.994 295.022 91.6928 295.022 92.3094C295.022 92.8346 295.899 93.3599 297.651 93.3599C298.788 93.3599 303.256 92.7479 307.633 92.7479C311.49 92.7479 316.917 93.2046 317.62 93.2046C318.496 93.2046 320.071 93.1133 320.071 92.1496C320.071 91.5375 318.843 90.8342 317.707 90.5738C312.275 89.3452 311.837 88.2902 311.399 84.3486C311.052 81.1059 311.052 72.7797 311.052 62.6129V41.1467C311.052 40.9732 311.399 40.0962 311.837 40.0094C312.891 39.7445 322.613 39.7446 324.101 39.8313C329.533 40.0962 330.669 40.5347 331.194 45.0928C331.459 47.2806 331.81 47.8972 332.422 47.8972C333.12 47.8972 333.823 47.0202 333.91 46.2301C334.435 41.6628 334.959 38.8676 335.836 36.1501C336.237 34.8941 335.886 34.104 335.462 34.104Z" fill="white"/>
<path fill-rule="evenodd" clip-rule="evenodd" d="M77.2998 131.524C77.2039 131.524 77.1081 131.643 76.8023 132.141C76.317 133.119 75.5446 133.925 74.5886 134.452C73.7895 134.878 72.8972 135.099 71.9916 135.096C70.738 135.073 69.5145 134.708 68.4534 134.04C67.3922 133.372 66.5339 132.426 65.9714 131.305C65.388 130.078 65.1019 128.731 65.1361 127.372C65.1361 123.778 67.5917 120.608 71.421 120.608C72.7945 120.57 74.1391 121.007 75.2276 121.846C75.7134 122.34 76.0517 122.96 76.2044 123.636C76.323 123.993 76.4691 124.253 76.5878 124.253C76.7749 124.253 76.9666 123.965 76.9438 123.467C76.9209 122.97 76.7749 121.896 76.7749 121.394C76.7749 120.891 76.5376 120.681 76.4189 120.681C76.0629 120.631 75.2276 120.325 74.5932 120.225C73.6739 119.997 72.7329 119.868 71.7862 119.841C69.4424 119.778 67.1534 120.556 65.3324 122.033C64.53 122.758 63.8841 123.639 63.4343 124.622C62.9846 125.605 62.7405 126.67 62.7171 127.752C62.6753 129.764 63.3886 131.72 64.7162 133.232C65.6656 134.351 68.1211 136.018 71.4758 136.018C72.9453 136.02 74.4061 135.795 75.8073 135.351C76.1021 135.212 76.3554 134.998 76.5421 134.73C76.9792 133.982 77.3008 133.172 77.496 132.328C77.5462 132.063 77.496 131.542 77.2815 131.542L77.2998 131.524ZM97.2774 119.846C95.5184 119.886 93.8147 120.468 92.3982 121.513C91.4161 122.26 90.624 123.228 90.0863 124.339C89.5486 125.45 89.2805 126.673 89.3037 127.907C89.2808 129.883 89.9841 131.8 91.28 133.292C92.0634 134.153 93.0194 134.84 94.0857 135.308C95.1521 135.775 96.3049 136.013 97.4691 136.005C99.13 136.003 100.756 135.528 102.157 134.634C103.234 133.839 104.104 132.796 104.693 131.593C105.281 130.39 105.572 129.063 105.539 127.724C105.539 123.203 101.851 119.841 97.2774 119.841V119.846ZM101.203 134.045C100.938 134.333 100.034 135.192 98.0579 135.192C94.2513 135.192 91.6314 131.118 91.6314 127.569C91.6314 124.783 92.4439 123.002 93.4891 121.974C94.389 121.144 95.5528 120.659 96.7753 120.604C98.0689 120.657 99.315 121.106 100.345 121.892C102.106 123.321 103.225 125.82 103.225 128.418C103.225 131.25 102.152 133.182 101.203 134.036V134.045ZM133.504 120.152C132.883 120.152 132.134 120.247 131.263 120.247C130.505 120.247 129.839 120.247 129.218 120.247C128.93 120.247 128.597 120.293 128.597 120.462C128.597 120.631 128.766 120.841 129.241 120.987C130.551 121.366 130.719 121.937 130.742 122.44C130.811 123.175 130.861 124.011 130.861 124.819C130.861 128.249 130.929 130.821 130.811 131.583C130.811 131.657 130.719 131.894 130.573 131.752C128.981 130.012 123.727 124.294 122.673 122.938C121.76 121.723 121.148 121.01 120.792 120.581C120.663 120.428 120.489 120.32 120.295 120.27C119.081 120.27 117.912 120.202 117.387 120.202C116.862 120.202 116.602 120.293 116.602 120.485C116.602 120.677 116.867 120.796 117.127 120.869C118.2 121.152 118.46 121.175 119.126 121.96C119.172 122.033 119.295 122.248 119.295 123.107C119.295 125.084 118.962 130.798 118.839 132.725C118.748 134.488 118.296 134.584 117.173 134.968C116.936 135.036 116.716 135.182 116.716 135.37C116.716 135.557 117.004 135.635 117.337 135.635C117.67 135.635 118.36 135.584 118.884 135.584C119.738 135.584 120.738 135.703 121.431 135.703C121.888 135.703 122.189 135.635 122.189 135.393C122.189 135.251 122.098 135.087 121.596 134.968C120.455 134.634 120.19 134.274 120.099 133.182C120.048 132.442 120.121 128.775 120.121 126.633C120.121 124.774 120.217 124.107 120.24 123.463C120.24 123.344 120.404 123.294 120.5 123.417C122.645 125.989 126.762 130.633 128.999 133.301C129.642 134.086 130.071 134.703 130.473 135.205C130.688 135.488 131.212 135.968 131.546 135.968C131.76 135.968 131.879 135.703 131.879 135.466C131.879 135.087 131.71 133.301 131.71 132.301C131.71 128.19 131.924 123.509 131.975 122.654C132.043 121.366 132.472 121.152 133.495 120.914C133.924 120.796 134.07 120.581 134.07 120.458C134.07 120.334 133.924 120.193 133.522 120.193L133.504 120.152ZM159.894 131.556C159.798 131.556 159.707 131.675 159.397 132.173C158.913 133.152 158.14 133.959 157.183 134.484C156.384 134.91 155.491 135.131 154.586 135.128C153.326 135.106 152.096 134.737 151.031 134.063C149.966 133.389 149.107 132.435 148.547 131.305C147.966 130.078 147.681 128.73 147.717 127.372C147.717 123.778 150.168 120.608 153.997 120.608C155.372 120.57 156.718 121.007 157.808 121.846C158.292 122.341 158.629 122.961 158.78 123.636C158.904 123.993 159.045 124.253 159.164 124.253C159.355 124.253 159.543 123.965 159.52 123.467C159.497 122.97 159.355 121.896 159.355 121.394C159.355 120.891 159.114 120.681 158.995 120.681C158.639 120.631 157.808 120.325 157.169 120.225C156.25 119.997 155.309 119.868 154.362 119.841C152.02 119.777 149.732 120.555 147.913 122.033C147.11 122.758 146.463 123.638 146.013 124.622C145.562 125.605 145.317 126.67 145.293 127.752C145.251 129.764 145.965 131.72 147.292 133.232C148.246 134.351 150.697 136.018 154.052 136.018C155.521 136.02 156.982 135.795 158.383 135.351C158.679 135.211 158.933 134.997 159.123 134.73C159.56 133.983 159.881 133.173 160.072 132.328C160.122 132.063 160.099 131.542 159.857 131.542L159.894 131.556ZM177.521 135.018C175.978 134.707 175.855 134.255 175.787 132.972C175.736 132.209 175.714 130.729 175.714 129.423C175.714 124.755 175.714 123.207 175.855 122.422C175.951 121.778 175.928 121.179 177.311 120.896C177.69 120.823 177.927 120.681 177.927 120.49C177.927 120.298 177.713 120.206 177.334 120.206C176.499 120.206 175.965 120.275 174.787 120.275C174.002 120.275 172.811 120.206 172.19 120.206C171.857 120.206 171.597 120.298 171.597 120.49C171.597 120.681 171.738 120.823 172.263 120.919C173.596 121.156 173.596 121.513 173.669 122.609C173.714 123.394 173.737 126.349 173.737 127.825C173.737 129.852 173.692 132.328 173.619 133.159C173.523 134.278 173.432 134.639 172.249 134.899C171.793 134.995 171.533 135.137 171.533 135.306C171.533 135.475 171.702 135.639 172.154 135.639C173.034 135.639 173.249 135.589 173.979 135.589C174.623 135.589 176.312 135.735 177.526 135.735C177.813 135.735 178.169 135.612 178.169 135.425C178.169 135.237 177.977 135.091 177.548 135.018H177.521ZM200.972 132.305C200.831 132.305 200.689 132.447 200.424 132.972C199.854 134.091 199.21 134.543 198.448 134.73C197.701 134.851 196.945 134.908 196.189 134.899C195.464 134.903 194.741 134.846 194.025 134.73C193.914 134.685 193.815 134.614 193.736 134.523C193.657 134.433 193.6 134.326 193.569 134.21C193.401 133.564 193.321 132.899 193.332 132.232C193.332 131.209 193.309 128.994 193.405 128.491C193.405 128.446 193.523 128.277 193.619 128.277C194.263 128.277 195.212 128.277 195.974 128.327C197.426 128.396 197.521 128.469 197.855 129.565C197.928 129.825 198.092 130.09 198.261 130.09C198.43 130.09 198.544 129.825 198.521 129.396C198.498 128.966 198.448 128.587 198.448 127.943C198.448 127.372 198.475 126.897 198.521 126.231C198.521 126.039 198.498 125.705 198.329 125.705C198.16 125.705 198.046 125.847 197.905 126.208C197.476 127.304 197.38 127.395 195.144 127.395H193.596C193.478 127.395 193.45 127.254 193.427 127.158C193.382 126.802 193.45 122.326 193.5 121.727C193.551 121.129 193.811 121.06 193.856 121.06C194.983 121.015 196.112 121.047 197.234 121.156C197.996 121.275 198.521 121.513 198.831 122.778C198.877 123.015 198.996 123.349 199.21 123.349C199.425 123.349 199.571 123.061 199.571 122.728C199.571 122.271 199.521 121.563 199.521 120.467C199.521 120.348 199.379 120.179 199.306 120.206C198.95 120.252 197.905 120.275 197.115 120.275H193.619C192.022 120.275 191.095 120.179 189.968 120.179C189.635 120.179 189.301 120.298 189.301 120.512C189.301 120.727 189.493 120.8 189.991 120.919C191.04 121.156 191.278 121.444 191.323 122.49C191.373 123.18 191.323 123.682 191.323 126.514C191.323 129.469 191.205 132.278 191.136 133.278C191.04 134.566 190.588 134.73 189.397 135.018C189.018 135.114 188.731 135.233 188.731 135.397C188.731 135.662 188.991 135.708 189.447 135.708C190.36 135.708 190.871 135.589 192.136 135.589C196.015 135.589 199.607 135.781 199.895 135.781C200.014 135.781 200.228 135.589 200.297 135.493C200.644 134.666 200.931 133.814 201.155 132.945C201.2 132.684 201.155 132.305 200.963 132.305H200.972ZM226.523 135.045C225.599 134.883 224.768 134.383 224.19 133.643C222.789 131.965 221.553 130.154 220.502 128.236C220.487 128.173 220.487 128.107 220.504 128.045C220.521 127.983 220.553 127.926 220.598 127.879C220.763 127.761 221.219 127.546 221.338 127.473C221.873 127.16 222.325 126.724 222.657 126.2C222.99 125.677 223.192 125.082 223.248 124.464C223.304 123.846 223.211 123.224 222.978 122.65C222.745 122.075 222.378 121.565 221.908 121.161C220.954 120.375 219.672 120.161 218.029 120.161C216.741 120.161 215.053 120.279 214.172 120.279H212.839C212.314 120.279 212.195 120.398 212.195 120.567C212.195 120.736 212.41 120.878 212.766 120.969C213.839 121.234 214.053 121.28 214.135 122.161C214.217 123.043 214.277 125.258 214.277 128.925C214.277 130.355 214.181 132.881 214.135 133.616C214.062 134.529 213.633 134.666 212.588 134.986C212.278 135.105 212.063 135.151 212.063 135.342C212.063 135.534 212.373 135.676 212.684 135.676C212.994 135.676 214.181 135.58 214.61 135.58C216.23 135.58 216.682 135.726 217.682 135.726C217.8 135.726 218.252 135.653 218.252 135.415C218.252 135.297 218.088 135.128 217.682 135.009C216.563 134.749 216.312 134.415 216.253 133.415C216.18 132.045 216.134 129.008 216.157 128.601C216.157 128.533 216.276 128.318 216.445 128.318C217.022 128.312 217.596 128.418 218.134 128.628C218.492 128.989 218.81 129.387 219.083 129.816C220.037 131.319 221.251 133.15 222.082 134.296C222.475 134.758 222.959 135.134 223.504 135.4C224.049 135.667 224.643 135.818 225.249 135.845C225.692 135.862 226.135 135.805 226.559 135.676C226.701 135.603 226.892 135.511 226.892 135.365C226.892 135.219 226.701 135.082 226.509 135.032L226.523 135.045ZM219.562 127.126C218.628 127.55 217.612 127.763 216.586 127.747C216.495 127.729 216.41 127.686 216.342 127.622C216.275 127.558 216.226 127.476 216.203 127.386C216.134 126.984 216.203 122.385 216.276 121.554C216.315 121.36 216.416 121.183 216.563 121.051C216.935 120.948 217.319 120.893 217.704 120.887C218.571 120.911 219.403 121.234 220.06 121.8C220.674 122.45 221.052 123.289 221.132 124.18C221.131 124.763 220.987 125.337 220.713 125.852C220.44 126.367 220.045 126.808 219.562 127.135V127.126ZM251.576 129.158C250.813 129.158 250.006 129.254 249.435 129.254C248.746 129.254 247.007 129.158 246.578 129.158C246.149 129.158 245.866 129.327 245.866 129.492C245.866 129.656 246.126 129.875 246.482 129.898C248.267 130.017 248.458 130.469 248.627 131.017C248.673 131.305 248.696 132.661 248.696 133.493C248.647 133.943 248.475 134.372 248.198 134.73C247.534 135.077 246.801 135.273 246.053 135.306C244.891 135.303 243.75 134.998 242.741 134.422C241.733 133.845 240.89 133.017 240.297 132.017C239.554 130.696 239.184 129.198 239.225 127.683C239.225 123.92 241.63 120.585 245.697 120.585C247.6 120.585 248.983 121.421 249.508 122.061C249.896 122.566 250.204 123.129 250.421 123.728C250.562 124.089 250.704 124.276 250.85 124.276C250.996 124.276 251.156 124.061 251.156 123.755C251.156 122.842 250.85 121.704 250.823 121.134C250.823 120.754 250.635 120.563 250.54 120.563C250.275 120.49 250.111 120.467 249.627 120.371C248.319 120.041 246.977 119.864 245.628 119.846C243.407 119.817 241.248 120.578 239.535 121.992C238.675 122.734 237.987 123.656 237.522 124.693C237.057 125.73 236.825 126.857 236.842 127.994C236.833 129.086 237.045 130.168 237.467 131.175C237.888 132.183 238.509 133.094 239.293 133.853C240.749 135.16 242.945 136.018 245.628 136.018C246.735 136.002 247.836 135.858 248.91 135.589C249.823 135.329 250.649 135.132 251.078 135.018C251.338 134.945 251.434 134.781 251.434 134.685C251.434 134.589 251.434 134.493 251.028 134.255C250.92 134.176 250.834 134.072 250.776 133.952C250.718 133.832 250.69 133.699 250.695 133.566C250.672 132.579 250.712 131.592 250.813 130.611C250.909 130.35 250.959 130.09 251.671 129.875C251.959 129.779 252.219 129.638 252.219 129.469C252.219 129.3 251.959 129.158 251.576 129.158ZM275.168 132.305C275.027 132.305 274.881 132.447 274.62 132.972C274.05 134.091 273.406 134.543 272.644 134.73C271.177 134.955 269.684 134.955 268.217 134.73C268.106 134.684 268.008 134.613 267.929 134.523C267.849 134.432 267.792 134.325 267.76 134.21C267.593 133.564 267.513 132.899 267.523 132.232C267.523 131.209 267.5 128.994 267.596 128.491C267.596 128.446 267.715 128.277 267.811 128.277C268.45 128.277 269.403 128.277 270.166 128.327C271.617 128.396 271.713 128.469 272.046 129.565C272.115 129.825 272.284 130.09 272.448 130.09C272.612 130.09 272.735 129.825 272.713 129.396C272.69 128.966 272.64 128.587 272.64 127.943C272.64 127.372 272.662 126.897 272.713 126.231C272.713 126.039 272.69 125.705 272.521 125.705C272.352 125.705 272.233 125.847 272.092 126.208C271.663 127.304 271.567 127.395 269.33 127.395H267.783C267.665 127.395 267.642 127.254 267.619 127.158C267.569 126.802 267.642 122.326 267.687 121.727C267.733 121.129 267.998 121.06 268.048 121.06C269.175 121.015 270.303 121.047 271.425 121.156C272.188 121.275 272.713 121.513 273.023 122.778C273.069 123.015 273.187 123.349 273.402 123.349C273.616 123.349 273.758 123.061 273.758 122.728C273.758 122.271 273.712 121.563 273.712 120.467C273.712 120.348 273.566 120.179 273.498 120.206C273.142 120.252 272.092 120.275 271.307 120.275H267.811C266.213 120.275 265.287 120.179 264.159 120.179C263.826 120.179 263.493 120.298 263.493 120.512C263.493 120.727 263.68 120.8 264.182 120.919C265.227 121.156 265.465 121.444 265.515 122.49C265.56 123.18 265.515 123.682 265.515 126.514C265.515 129.469 265.396 132.278 265.323 133.278C265.232 134.566 264.775 134.73 263.589 135.018C263.205 135.114 262.922 135.233 262.922 135.397C262.922 135.662 263.182 135.708 263.634 135.708C264.547 135.708 265.063 135.589 266.323 135.589C270.202 135.589 273.799 135.781 274.082 135.781C274.201 135.781 274.415 135.589 274.488 135.493C274.832 134.664 275.118 133.813 275.346 132.945C275.392 132.684 275.319 132.305 275.154 132.305" fill="white"/>
</g>
<defs>
<clipPath id="clip0_2_77">
<rect width="336" height="136" fill="white"/>
</clipPath>
</defs>
</svg>
