<svg width="50" height="50" viewBox="0 0 50 50" fill="none" xmlns="http://www.w3.org/2000/svg">
<rect x="1" y="1" width="48" height="48" rx="24" stroke="#F5F5F5" stroke-width="2"/>
<path d="M24.24 40V19.12H26.24V40H24.24ZM25.24 14.04C24.7867 14.04 24.4 13.88 24.08 13.56C23.76 13.24 23.6 12.8667 23.6 12.44C23.6 11.9867 23.76 11.6 24.08 11.28C24.4 10.96 24.7867 10.8 25.24 10.8C25.72 10.8 26.1067 10.96 26.4 11.28C26.72 11.5733 26.88 11.9467 26.88 12.4C26.88 12.8533 26.72 13.24 26.4 13.56C26.1067 13.88 25.72 14.04 25.24 14.04Z" fill="#F5F5F5"/>
</svg>
