<?xml version="1.0" encoding="utf-8"?>
<!-- Generator: Adobe Illustrator 26.0.1, SVG Export Plug-In . SVG Version: 6.00 Build 0)  -->
<svg version="1.1" id="Слой_1" xmlns="http://www.w3.org/2000/svg" xmlns:xlink="http://www.w3.org/1999/xlink" x="0px" y="0px"
	 viewBox="0 0 100 100" style="enable-background:new 0 0 100 100;" xml:space="preserve">
<g>
	<path d="M71.62,38.09c-0.18,2.1-0.35,4.11-0.52,6.11c-0.63,7.65-1.27,15.3-1.9,22.95c-0.21,2.53-0.43,5.06-0.62,7.59
		c-0.28,3.55-2.77,5.9-6.37,5.91c-6.64,0.02-13.28,0.01-19.92,0.01c-1.59,0-3.19,0.03-4.78-0.01c-3.34-0.08-5.81-2.47-6.08-5.8
		c-0.88-10.7-1.78-21.4-2.67-32.09c-0.13-1.52-0.24-3.04-0.37-4.66c-0.68,0-1.29,0.02-1.9,0c-1.09-0.04-1.69-0.67-1.47-1.7
		c0.38-1.81,0.77-3.63,1.33-5.39c0.7-2.19,2.72-3.62,5.03-3.67c2.63-0.05,5.27-0.04,7.91-0.01c0.62,0.01,0.87-0.14,1.04-0.8
		c1.07-4.3,4.64-7.04,9.09-7.16c3.18-0.09,5.98,0.7,8.18,3.14c1.07,1.19,1.79,2.56,2.12,4.12c0.12,0.58,0.37,0.72,0.91,0.71
		c2.47-0.02,4.95-0.02,7.42-0.01c3.15,0.01,5.22,1.65,5.95,4.7c0.33,1.36,0.65,2.72,0.95,4.08c0.29,1.32-0.25,1.98-1.62,2.01
		C72.8,38.09,72.28,38.09,71.62,38.09z M31.13,38.13c0.17,1.96,0.33,3.8,0.48,5.65c0.85,10.31,1.7,20.62,2.55,30.93
		c0.16,1.89,1.49,3.2,3.41,3.2c8.3,0.02,16.6,0.02,24.9,0c1.9-0.01,3.21-1.34,3.37-3.24c0.28-3.34,0.55-6.68,0.83-10.02
		c0.62-7.49,1.25-14.98,1.87-22.46c0.11-1.34,0.2-2.69,0.31-4.06C56.23,38.13,43.74,38.13,31.13,38.13z M71.92,35.3
		c-0.18-0.79-0.33-1.51-0.5-2.24c-0.58-2.42-1.37-3.04-3.88-3.04c-11.71,0-23.42,0-35.12,0c-0.36,0-0.72,0-1.07,0.03
		c-1.1,0.09-1.97,0.64-2.34,1.65c-0.43,1.14-0.65,2.36-0.97,3.6C42.73,35.3,57.29,35.3,71.92,35.3z M56.95,27.25
		c-0.26-2.9-3.2-5.15-6.7-5.16c-3.92-0.02-6.9,2.11-7.2,5.16C47.68,27.25,52.31,27.25,56.95,27.25z"/>
	<path d="M41.61,68.56c0.02,0.39,0.06,0.78,0.05,1.17c-0.02,0.76-0.45,1.24-1.18,1.32c-0.78,0.08-1.36-0.32-1.46-1.11
		c-0.16-1.22-0.22-2.46-0.3-3.69c-0.43-6.49-0.84-12.98-1.28-19.47c-0.05-0.73,0.01-1.38,0.75-1.74c0.82-0.4,1.76,0.07,1.89,1.04
		c0.16,1.16,0.21,2.33,0.29,3.5C40.78,55.9,41.2,62.23,41.61,68.56z"/>
	<path d="M62.51,47.59c-0.47,7.24-0.95,14.47-1.43,21.71c-0.01,0.16-0.03,0.32-0.06,0.48c-0.13,0.82-0.61,1.3-1.45,1.28
		c-0.78-0.01-1.29-0.64-1.24-1.56c0.15-2.76,0.34-5.52,0.52-8.28c0.3-4.51,0.6-9.02,0.91-13.53c0.04-0.58,0.06-1.18,0.18-1.74
		c0.15-0.74,0.69-1.09,1.43-1.02c0.71,0.07,1.12,0.51,1.19,1.21c0.05,0.48,0.01,0.97,0.01,1.46C62.56,47.59,62.53,47.59,62.51,47.59
		z"/>
	<path d="M51.37,58.07c0,3.61,0,7.22,0,10.83c0,0.26,0.01,0.52-0.01,0.78c-0.06,0.84-0.51,1.33-1.34,1.39
		c-0.72,0.05-1.31-0.54-1.38-1.35c-0.02-0.23-0.01-0.45-0.01-0.68c0-7.35,0-14.69,0-22.04c0-0.1,0-0.2,0-0.29
		c0.01-1.15,0.48-1.77,1.34-1.78c0.88-0.01,1.38,0.61,1.39,1.74c0.01,1.14,0,2.28,0,3.41C51.37,52.74,51.37,55.4,51.37,58.07z"/>
</g>
</svg>
